<svg xmlns="http://www.w3.org/2000/svg" viewBox="-25 156.958 612.3499755859375 236.99329289596463"><rect height="100%" width="100%" x="-25" y="156.958" fill="rgba(255, 255, 255, 0)"/> <g transform="rotate(0 74.1910400390625 275.4546464479823)"><svg xmlns="http://www.w3.org/2000/svg" xmlns:xlink="http://www.w3.org/1999/xlink" version="1.1" id="Layer_1" x="45" y="226.958" viewBox="80.60000610351562 64.10004425048828 432.8999938964844 719.199951171875" xml:space="preserve" height="96.99329289596464" width="58.382080078125" preserveAspectRatio="xMinYMin" enable-background="new 0 0 588.2 846.3" style="overflow: visible;"><polygon class="st0" points="99.1,480.1 392.1,84.1 309.8,359.5 492.1,365.4 203.9,742.7 277.5,478.1 " style="fill: #ffffff; fill-opacity: 0;"></polygon><polygon class="st1" points="169.1,441.3 342.1,204.1 258.7,400.8 427.1,400.1 272.1,616.1 350.9,440.3 " style="fill: #FFFFFF; fill-opacity: 0;"></polygon><path d="M494.5,353.7c-5.8,0-11,2.6-14.5,6.7h-1.8l-58.3-41.5c0.9-1.8,1.5-3.8,1.5-6c0-6.7-5.2-12.2-11.8-12.8l-12.4-184.4  c12.7-1.7,22.5-12.5,22.5-25.7c0-14.3-11.6-25.9-25.9-25.9S367.9,75.7,367.9,90c0,4.5,1.2,8.8,3.2,12.5L237.9,192  c-2.3-2.4-5.6-3.9-9.2-3.9c-7.1,0-12.8,5.7-12.8,12.8c0,7.1,5.7,12.8,12.8,12.8l-1.7-0.1l-4.4,92.6L103.9,463.9  c-1.4-0.3-2.8-0.5-4.2-0.5c-10.6,0-19.1,8.6-19.1,19.1s8.6,19.1,19.1,19.1c7.5,0,14-4.4,17.1-10.7l95.8,27.2l-9.8,208.8l-1.3,4.6  c-13.7,0.6-24.7,12-24.7,25.9c0,14.3,11.6,25.9,25.9,25.9s25.9-11.6,25.9-25.9c0-6.5-2.4-12.4-6.3-16.9l136.1-180.9l74.6,21.2  c0,0,0,0.1,0,0.1c0,7.1,5.7,12.8,12.8,12.8c7.1,0,12.8-5.7,12.8-12.8c0-7.1-5.7-12.8-12.8-12.8c-1.1,0-2.2,0.2-3.2,0.4l-39.3-68.7  l82.7-109.9c2.5,1.2,5.4,2,8.4,2c10.6,0,19.1-8.6,19.1-19.1S505,353.7,494.5,353.7z M259.9,487c1.2,5,4.4,9.3,8.7,11.8l-7.5,26  l-44.8-12.7l1.2-25.1H259.9z M282.1,501.3c8.8-1.7,15.5-9.4,15.5-18.7c0-10.6-8.6-19.1-19.1-19.1c-7.3,0-13.6,4.1-16.8,10.1h-43.5  l1-21.3l129-35.4l43.5,76.1l-42.8,56.9l-74.6-21.2L282.1,501.3z M214.7,473.5h-73.4l74.4-20.4L214.7,473.5z M219.3,447.4l5.7-121.9  l40.3-53.5l43.8,76.6c-6.7,3-11.4,9.7-11.4,17.5c0,10.6,8.6,19.1,19.1,19.1c4.1,0,8-1.3,11.1-3.6l17.8,31.2L219.3,447.4z M377,123.6  l-63.3,219.3L269.8,266L377,123.6z M332.9,376.4c0.5-0.8,1-1.6,1.4-2.5h141.2c0.1,1.1,0.2,2.1,0.4,3.1l-123.3,33.8L332.9,376.4z   M472.3,360.4H335.1c-0.3-0.8-0.6-1.6-1-2.4l64.2-37.2c2.3,3,6,5,10.1,5c3.7,0,7-1.6,9.4-4.1L472.3,360.4z M406.2,300.2  c-6,1.1-10.5,6.3-10.5,12.6c0,1.7,0.4,3.4,1,4.9L332.5,355c-1.7-2.4-3.9-4.4-6.5-5.8l67.4-233.3c0.1,0,0.3,0,0.4,0c0,0,0,0,0,0  L406.2,300.2z M372.5,107l-110,146.2l-24.7-43.3c2.3-2.3,3.8-5.5,3.8-9.1c0-1.8-0.4-3.6-1.1-5.2L372.5,107z M230.4,213.8l-1.7-0.1  c1.1,0,2.2-0.2,3.2-0.4l26.2,45.8l-31.8,42.3L230.4,213.8z M215.9,448.3l-91.7,25.2h-7.6c-0.4-0.7-0.8-1.4-1.3-2.1l106.2-141.1  L215.9,448.3z M128,487h86l-1.1,24.1L128,487z M216,519.1l43.3,12.3l-52.4,181.4L216,519.1z M217.8,723.8l54.5-188.7l72.1,20.5  L217.8,723.8z M436.7,571.9c-0.7,0.7-1.3,1.5-1.9,2.4l-72.1-20.5l36.2-48.1L436.7,571.9z M354.9,414.9l120.2-33l-79,105L354.9,414.9  z" style="fill: #1A4D2F; fill-opacity: 1;"></path></svg></g> <g transform="rotate(0 321.17498779296875 275.4549983215332)"><svg y="249.695" viewBox="2.950000047683716 18.829999923706055 392.3499755859375 51.519996643066406" x="125" height="51.519996643066406" width="392.3499755859375" style="overflow: visible;"><g fill="#1A4D2F" fill-opacity="1" style=""><path d="M22.65 70.35L22.65 70.35Q17.96 70.35 13.94 68.57Q9.92 66.80 7.10 63.72Q4.29 60.64 2.95 56.62L2.95 56.62L9.65 53.80Q11.46 58.42 14.94 60.90Q18.43 63.38 22.98 63.38L22.98 63.38Q25.66 63.38 27.67 62.54Q29.68 61.71 30.79 60.17Q31.89 58.63 31.89 56.62L31.89 56.62Q31.89 53.87 30.35 52.26Q28.81 50.65 25.80 49.71L25.80 49.71L16.42 46.77Q10.79 45.02 7.84 41.44Q4.89 37.86 4.89 33.03L4.89 33.03Q4.89 28.81 6.97 25.63Q9.04 22.45 12.70 20.64Q16.35 18.83 21.04 18.83L21.04 18.83Q25.53 18.83 29.21 20.40Q32.90 21.98 35.54 24.72Q38.19 27.47 39.40 31.09L39.40 31.09L32.83 33.97Q31.36 30.02 28.24 27.87Q25.13 25.73 21.04 25.73L21.04 25.73Q18.56 25.73 16.68 26.57Q14.81 27.40 13.77 28.98Q12.73 30.55 12.73 32.63L12.73 32.63Q12.73 35.04 14.27 36.92Q15.81 38.79 18.96 39.73L18.96 39.73L27.67 42.48Q33.63 44.29 36.65 47.67Q39.66 51.05 39.66 56.08L39.66 56.08Q39.66 60.23 37.49 63.45Q35.31 66.67 31.49 68.51Q27.67 70.35 22.65 70.35ZM62.78 69.95L62.78 69.95Q57.08 69.95 53.94 66.73Q50.79 63.52 50.79 57.69L50.79 57.69L50.79 40.13L44.42 40.13L44.42 33.30L45.43 33.30Q47.97 33.30 49.38 31.83Q50.79 30.35 50.79 27.81L50.79 27.81L50.79 24.99L58.36 24.99L58.36 33.30L66.60 33.30L66.60 40.13L58.36 40.13L58.36 57.35Q58.36 59.23 58.96 60.53Q59.56 61.84 60.90 62.54Q62.24 63.25 64.39 63.25L64.39 63.25Q64.92 63.25 65.59 63.18Q66.26 63.11 66.87 63.05L66.87 63.05L66.87 69.55Q65.93 69.68 64.79 69.81Q63.65 69.95 62.78 69.95ZM90.38 70.35L90.38 70.35Q85.16 70.35 80.84 67.87Q76.51 65.39 73.97 61.10Q71.42 56.82 71.42 51.39L71.42 51.39Q71.42 45.90 73.97 41.64Q76.51 37.39 80.80 34.94Q85.09 32.50 90.38 32.50L90.38 32.50Q95.74 32.50 100.00 34.94Q104.25 37.39 106.76 41.64Q109.28 45.90 109.28 51.39L109.28 51.39Q109.28 56.88 106.73 61.17Q104.19 65.46 99.90 67.90Q95.61 70.35 90.38 70.35ZM90.38 63.32L90.38 63.32Q93.60 63.32 96.08 61.77Q98.56 60.23 100.00 57.52Q101.44 54.81 101.44 51.39L101.44 51.39Q101.44 47.97 100.00 45.29Q98.56 42.61 96.08 41.07Q93.60 39.53 90.38 39.53L90.38 39.53Q87.23 39.53 84.72 41.07Q82.21 42.61 80.77 45.29Q79.33 47.97 79.33 51.39L79.33 51.39Q79.33 54.81 80.77 57.52Q82.21 60.23 84.72 61.77Q87.23 63.32 90.38 63.32ZM123.55 69.55L115.98 69.55L115.98 33.30L123.21 33.30L123.21 40.60L122.54 39.53Q123.75 35.98 126.43 34.40Q129.11 32.83 132.86 32.83L132.86 32.83L135.07 32.83L135.07 39.73L131.92 39.73Q128.17 39.73 125.86 42.04Q123.55 44.35 123.55 48.64L123.55 48.64L123.55 69.55ZM147.13 69.55L139.56 69.55L139.56 33.30L146.80 33.30L146.80 41.14L145.86 39.93Q147.00 36.25 150.01 34.37Q153.03 32.50 156.91 32.50L156.91 32.50Q161.27 32.50 164.65 34.81Q168.04 37.12 169.18 40.94L169.18 40.94L167.03 41.14Q168.64 36.78 171.96 34.64Q175.27 32.50 179.56 32.50L179.56 32.50Q183.31 32.50 186.36 34.24Q189.41 35.98 191.22 39.06Q193.03 42.14 193.03 46.10L193.03 46.10L193.03 69.55L185.46 69.55L185.46 48.17Q185.46 45.43 184.48 43.52Q183.51 41.61 181.80 40.57Q180.10 39.53 177.82 39.53L177.82 39.53Q175.54 39.53 173.80 40.57Q172.06 41.61 171.05 43.55Q170.05 45.49 170.05 48.17L170.05 48.17L170.05 69.55L162.54 69.55L162.54 48.17Q162.54 45.43 161.57 43.52Q160.60 41.61 158.89 40.57Q157.18 39.53 154.84 39.53L154.84 39.53Q152.56 39.53 150.82 40.57Q149.08 41.61 148.10 43.55Q147.13 45.49 147.13 48.17L147.13 48.17L147.13 69.55ZM223.98 69.55L221.10 69.55L221.10 62.18L223.98 62.18Q227.33 62.18 229.34 60.20Q231.35 58.22 231.35 54.87L231.35 54.87L231.35 19.63L239.19 19.63L239.19 54.61Q239.19 59.16 237.35 62.51Q235.51 65.86 232.05 67.70Q228.60 69.55 223.98 69.55L223.98 69.55ZM258.89 70.35L258.89 70.35Q255.20 70.35 252.42 69.04Q249.64 67.74 248.10 65.43Q246.56 63.11 246.56 59.97L246.56 59.97Q246.56 57.02 247.87 54.67Q249.17 52.33 251.92 50.72Q254.67 49.11 258.82 48.44L258.82 48.44L271.42 46.36L271.42 52.33L260.30 54.27Q257.28 54.81 255.87 56.18Q254.47 57.55 254.47 59.70L254.47 59.70Q254.47 61.77 256.04 63.08Q257.62 64.39 260.09 64.39L260.09 64.39Q263.18 64.39 265.49 63.05Q267.80 61.71 269.07 59.46Q270.35 57.22 270.35 54.47L270.35 54.47L270.35 45.16Q270.35 42.48 268.37 40.77Q266.39 39.06 263.11 39.06L263.11 39.06Q260.09 39.06 257.85 40.64Q255.61 42.21 254.53 44.69L254.53 44.69L248.24 41.54Q249.24 38.86 251.52 36.82Q253.80 34.77 256.84 33.63Q259.89 32.50 263.31 32.50L263.31 32.50Q267.60 32.50 270.91 34.10Q274.23 35.71 276.07 38.56Q277.92 41.41 277.92 45.16L277.92 45.16L277.92 69.55L270.68 69.55L270.68 62.98L272.22 63.18Q270.95 65.39 268.97 67Q267.00 68.61 264.48 69.48Q261.97 70.35 258.89 70.35ZM293.66 69.55L286.09 69.55L286.09 33.30L293.33 33.30L293.33 40.60L292.66 39.53Q293.86 35.98 296.54 34.40Q299.22 32.83 302.97 32.83L302.97 32.83L305.19 32.83L305.19 39.73L302.04 39.73Q298.28 39.73 295.97 42.04Q293.66 44.35 293.66 48.64L293.66 48.64L293.66 69.55ZM327.09 69.55L320.19 69.55L305.99 33.30L314.23 33.30L325.15 62.85L322.14 62.85L333.06 33.30L341.37 33.30L327.09 69.55ZM353.43 69.55L345.85 69.55L345.85 33.30L353.43 33.30L353.43 69.55ZM353.43 28.34L345.85 28.34L345.85 19.63L353.43 19.63L353.43 28.34ZM378.62 70.35L378.62 70.35Q373.19 70.35 369.00 67.84Q364.82 65.33 362.47 61.00Q360.13 56.68 360.13 51.32L360.13 51.32Q360.13 45.83 362.50 41.61Q364.88 37.39 368.90 34.94Q372.92 32.50 378.01 32.50L378.01 32.50Q382.10 32.50 385.32 33.90Q388.53 35.31 390.74 37.75Q392.96 40.20 394.13 43.35Q395.30 46.50 395.30 50.05L395.30 50.05Q395.30 50.92 395.23 51.86Q395.17 52.80 394.97 53.60L394.97 53.60L366.09 53.60L366.09 47.57L390.68 47.57L387.06 50.32Q387.73 47.03 386.62 44.45Q385.52 41.88 383.27 40.37Q381.03 38.86 378.01 38.86L378.01 38.86Q375.00 38.86 372.65 40.37Q370.31 41.88 369.04 44.66Q367.76 47.44 368.03 51.39L368.03 51.39Q367.70 55.07 369.07 57.82Q370.44 60.57 372.96 62.11Q375.47 63.65 378.68 63.65L378.68 63.65Q381.97 63.65 384.28 62.18Q386.59 60.70 387.93 58.36L387.93 58.36L394.09 61.37Q393.02 63.92 390.78 65.96Q388.53 68.01 385.42 69.18Q382.30 70.35 378.62 70.35Z" transform="translate(0, 0)"></path></g></svg></g></svg>