<svg xmlns="http://www.w3.org/2000/svg" viewBox="-29.589996337890625 50 634.1799926757812 478.3193501506161"><rect height="100%" width="100%" x="-29.589996337890625" y="50" fill="rgba(26, 77, 47, 1)"/> <g transform="rotate(0 287.50009403206224 256.97545259961197)"><svg xmlns="http://www.w3.org/2000/svg" xmlns:xlink="http://www.w3.org/1999/xlink" version="1.1" id="Layer_1" x="205.052" y="120" viewBox="80.60000610351562 64.10004425048828 432.8999938964844 719.199951171875" xml:space="preserve" height="273.95090519922394" width="164.8961880641245" preserveAspectRatio="xMinYMin" enable-background="new 0 0 588.2 846.3" style="overflow: visible;"><polygon class="st0" points="99.1,480.1 392.1,84.1 309.8,359.5 492.1,365.4 203.9,742.7 277.5,478.1 " style="fill: #FFFFFF; fill-opacity: 1;"></polygon><polygon class="st1" points="169.1,441.3 342.1,204.1 258.7,400.8 427.1,400.1 272.1,616.1 350.9,440.3 " style="fill: #FFFFFF; fill-opacity: 1;"></polygon><path d="M494.5,353.7c-5.8,0-11,2.6-14.5,6.7h-1.8l-58.3-41.5c0.9-1.8,1.5-3.8,1.5-6c0-6.7-5.2-12.2-11.8-12.8l-12.4-184.4  c12.7-1.7,22.5-12.5,22.5-25.7c0-14.3-11.6-25.9-25.9-25.9S367.9,75.7,367.9,90c0,4.5,1.2,8.8,3.2,12.5L237.9,192  c-2.3-2.4-5.6-3.9-9.2-3.9c-7.1,0-12.8,5.7-12.8,12.8c0,7.1,5.7,12.8,12.8,12.8l-1.7-0.1l-4.4,92.6L103.9,463.9  c-1.4-0.3-2.8-0.5-4.2-0.5c-10.6,0-19.1,8.6-19.1,19.1s8.6,19.1,19.1,19.1c7.5,0,14-4.4,17.1-10.7l95.8,27.2l-9.8,208.8l-1.3,4.6  c-13.7,0.6-24.7,12-24.7,25.9c0,14.3,11.6,25.9,25.9,25.9s25.9-11.6,25.9-25.9c0-6.5-2.4-12.4-6.3-16.9l136.1-180.9l74.6,21.2  c0,0,0,0.1,0,0.1c0,7.1,5.7,12.8,12.8,12.8c7.1,0,12.8-5.7,12.8-12.8c0-7.1-5.7-12.8-12.8-12.8c-1.1,0-2.2,0.2-3.2,0.4l-39.3-68.7  l82.7-109.9c2.5,1.2,5.4,2,8.4,2c10.6,0,19.1-8.6,19.1-19.1S505,353.7,494.5,353.7z M259.9,487c1.2,5,4.4,9.3,8.7,11.8l-7.5,26  l-44.8-12.7l1.2-25.1H259.9z M282.1,501.3c8.8-1.7,15.5-9.4,15.5-18.7c0-10.6-8.6-19.1-19.1-19.1c-7.3,0-13.6,4.1-16.8,10.1h-43.5  l1-21.3l129-35.4l43.5,76.1l-42.8,56.9l-74.6-21.2L282.1,501.3z M214.7,473.5h-73.4l74.4-20.4L214.7,473.5z M219.3,447.4l5.7-121.9  l40.3-53.5l43.8,76.6c-6.7,3-11.4,9.7-11.4,17.5c0,10.6,8.6,19.1,19.1,19.1c4.1,0,8-1.3,11.1-3.6l17.8,31.2L219.3,447.4z M377,123.6  l-63.3,219.3L269.8,266L377,123.6z M332.9,376.4c0.5-0.8,1-1.6,1.4-2.5h141.2c0.1,1.1,0.2,2.1,0.4,3.1l-123.3,33.8L332.9,376.4z   M472.3,360.4H335.1c-0.3-0.8-0.6-1.6-1-2.4l64.2-37.2c2.3,3,6,5,10.1,5c3.7,0,7-1.6,9.4-4.1L472.3,360.4z M406.2,300.2  c-6,1.1-10.5,6.3-10.5,12.6c0,1.7,0.4,3.4,1,4.9L332.5,355c-1.7-2.4-3.9-4.4-6.5-5.8l67.4-233.3c0.1,0,0.3,0,0.4,0c0,0,0,0,0,0  L406.2,300.2z M372.5,107l-110,146.2l-24.7-43.3c2.3-2.3,3.8-5.5,3.8-9.1c0-1.8-0.4-3.6-1.1-5.2L372.5,107z M230.4,213.8l-1.7-0.1  c1.1,0,2.2-0.2,3.2-0.4l26.2,45.8l-31.8,42.3L230.4,213.8z M215.9,448.3l-91.7,25.2h-7.6c-0.4-0.7-0.8-1.4-1.3-2.1l106.2-141.1  L215.9,448.3z M128,487h86l-1.1,24.1L128,487z M216,519.1l43.3,12.3l-52.4,181.4L216,519.1z M217.8,723.8l54.5-188.7l72.1,20.5  L217.8,723.8z M436.7,571.9c-0.7,0.7-1.3,1.5-1.9,2.4l-72.1-20.5l36.2-48.1L436.7,571.9z M354.9,414.9l120.2-33l-79,105L354.9,414.9  z" style="fill: #FFFFFF; fill-opacity: 1;"></path></svg></g> <g transform="rotate(0 287.5 454.4743501220059)"><svg xmlns="http://www.w3.org/2000/svg" y="450.62935009339566" viewBox="0.8799999952316284 2.809999942779541 494.17999267578125 7.690000057220459" x="40.410003662109375" height="7.690000057220459" width="494.17999267578125" style="overflow: visible;"><g fill="#FFFFFF" fill-opacity="1" style=""><path d="M1.68 10.38L0.88 10.38L0.88 2.93L5.48 2.93L5.48 3.68L1.68 3.68L1.68 6.27L5.18 6.27L5.18 7.02L1.68 7.02L1.68 10.38ZM10.29 10.38L9.49 10.38L9.49 2.93L12.05 2.93Q12.78 2.93 13.33 3.22Q13.88 3.50 14.19 4.02Q14.49 4.53 14.49 5.21L14.49 5.21Q14.49 6.00 14.08 6.56Q13.66 7.12 12.95 7.35L12.95 7.35L14.69 10.38L13.75 10.38L11.93 7.17L12.47 7.48L10.29 7.48L10.29 10.38ZM10.29 3.68L10.29 6.73L12.09 6.73Q12.57 6.73 12.93 6.55Q13.29 6.36 13.49 6.02Q13.69 5.67 13.69 5.20L13.69 5.20Q13.69 4.73 13.49 4.39Q13.29 4.05 12.93 3.87Q12.57 3.68 12.09 3.68L12.09 3.68L10.29 3.68ZM18.77 10.38L17.93 10.38L20.65 2.93L21.51 2.93L24.23 10.38L23.39 10.38L22.75 8.56L19.42 8.56L18.77 10.38ZM21.20 3.53L19.68 7.81L22.47 7.81L20.96 3.53L21.20 3.53ZM31.12 10.50L31.12 10.50Q30.33 10.50 29.67 10.22Q29.01 9.93 28.52 9.42Q28.04 8.90 27.77 8.20Q27.50 7.50 27.50 6.66L27.50 6.66Q27.50 5.82 27.77 5.12Q28.04 4.42 28.52 3.90Q29.01 3.38 29.67 3.10Q30.33 2.81 31.12 2.81L31.12 2.81Q31.88 2.81 32.48 3.08Q33.09 3.35 33.51 3.78Q33.92 4.20 34.10 4.67L34.10 4.67L33.35 5.00Q33.07 4.35 32.49 3.96Q31.92 3.56 31.12 3.56L31.12 3.56Q30.30 3.56 29.66 3.95Q29.02 4.34 28.66 5.04Q28.30 5.73 28.30 6.66L28.30 6.66Q28.30 7.58 28.66 8.28Q29.02 8.98 29.66 9.37Q30.30 9.75 31.12 9.75L31.12 9.75Q31.92 9.75 32.49 9.36Q33.07 8.97 33.35 8.32L33.35 8.32L34.10 8.65Q33.92 9.11 33.51 9.54Q33.09 9.96 32.48 10.23Q31.88 10.50 31.12 10.50ZM40.42 10.38L39.62 10.38L39.62 3.68L37.56 3.68L37.56 2.93L42.46 2.93L42.46 3.68L40.42 3.68L40.42 10.38ZM47.05 10.38L46.25 10.38L46.25 2.93L47.05 2.93L47.05 10.38ZM55.12 10.50L55.12 10.50Q54.34 10.50 53.66 10.22Q52.99 9.93 52.48 9.42Q51.97 8.90 51.68 8.20Q51.39 7.49 51.39 6.65L51.39 6.65Q51.39 5.81 51.68 5.11Q51.97 4.40 52.48 3.89Q52.99 3.37 53.66 3.09Q54.34 2.81 55.12 2.81L55.12 2.81Q55.90 2.81 56.57 3.10Q57.25 3.38 57.76 3.90Q58.27 4.41 58.56 5.11Q58.85 5.81 58.85 6.65L58.85 6.65Q58.85 7.49 58.56 8.20Q58.27 8.90 57.76 9.42Q57.25 9.93 56.57 10.22Q55.90 10.50 55.12 10.50ZM55.12 9.75L55.12 9.75Q55.77 9.75 56.30 9.51Q56.84 9.27 57.23 8.84Q57.62 8.41 57.83 7.85Q58.05 7.29 58.05 6.65L58.05 6.65Q58.05 6.02 57.83 5.46Q57.62 4.90 57.23 4.47Q56.84 4.04 56.30 3.80Q55.77 3.56 55.12 3.56L55.12 3.56Q54.47 3.56 53.93 3.80Q53.40 4.04 53.01 4.47Q52.62 4.90 52.40 5.46Q52.19 6.02 52.19 6.65L52.19 6.65Q52.19 7.29 52.40 7.85Q52.62 8.41 53.01 8.84Q53.40 9.27 53.94 9.51Q54.48 9.75 55.12 9.75ZM63.99 10.38L63.19 10.38L63.19 2.93L63.89 2.93L68.26 9.20L67.99 9.20L67.99 2.93L68.79 2.93L68.79 10.38L68.09 10.38L63.72 4.07L63.99 4.07L63.99 10.38ZM73.42 10.38L72.58 10.38L75.30 2.93L76.16 2.93L78.88 10.38L78.04 10.38L77.40 8.56L74.07 8.56L73.42 10.38ZM75.85 3.53L74.33 7.81L77.12 7.81L75.61 3.53L75.85 3.53ZM86.77 10.38L82.67 10.38L82.67 2.93L83.47 2.93L83.47 9.63L86.77 9.63L86.77 10.38ZM96.08 10.38L95.28 10.38L95.28 2.93L97.84 2.93Q98.57 2.93 99.12 3.22Q99.67 3.50 99.97 4.02Q100.28 4.53 100.28 5.21L100.28 5.21Q100.28 5.89 99.97 6.40Q99.67 6.91 99.12 7.20Q98.58 7.48 97.84 7.48L97.84 7.48L96.08 7.48L96.08 10.38ZM96.08 3.68L96.08 6.73L97.88 6.73Q98.36 6.73 98.72 6.55Q99.08 6.36 99.28 6.02Q99.48 5.67 99.48 5.20L99.48 5.20Q99.48 4.73 99.28 4.39Q99.08 4.05 98.72 3.87Q98.36 3.68 97.88 3.68L97.88 3.68L96.08 3.68ZM105.31 10.38L104.51 10.38L104.51 2.93L107.07 2.93Q107.80 2.93 108.35 3.22Q108.90 3.50 109.20 4.02Q109.51 4.53 109.51 5.21L109.51 5.21Q109.51 6.00 109.09 6.56Q108.68 7.12 107.97 7.35L107.97 7.35L109.71 10.38L108.77 10.38L106.95 7.17L107.49 7.48L105.31 7.48L105.31 10.38ZM105.31 3.68L105.31 6.73L107.11 6.73Q107.59 6.73 107.95 6.55Q108.31 6.36 108.51 6.02Q108.71 5.67 108.71 5.20L108.71 5.20Q108.71 4.73 108.51 4.39Q108.31 4.05 107.95 3.87Q107.59 3.68 107.11 3.68L107.11 3.68L105.31 3.68ZM117.23 10.50L117.23 10.50Q116.45 10.50 115.77 10.22Q115.10 9.93 114.59 9.42Q114.08 8.90 113.79 8.20Q113.50 7.49 113.50 6.65L113.50 6.65Q113.50 5.81 113.79 5.11Q114.08 4.40 114.59 3.89Q115.10 3.37 115.77 3.09Q116.45 2.81 117.23 2.81L117.23 2.81Q118.01 2.81 118.68 3.10Q119.36 3.38 119.87 3.90Q120.38 4.41 120.67 5.11Q120.96 5.81 120.96 6.65L120.96 6.65Q120.96 7.49 120.67 8.20Q120.38 8.90 119.87 9.42Q119.36 9.93 118.68 10.22Q118.01 10.50 117.23 10.50ZM117.23 9.75L117.23 9.75Q117.88 9.75 118.41 9.51Q118.95 9.27 119.34 8.84Q119.73 8.41 119.94 7.85Q120.16 7.29 120.16 6.65L120.16 6.65Q120.16 6.02 119.94 5.46Q119.73 4.90 119.34 4.47Q118.95 4.04 118.41 3.80Q117.88 3.56 117.23 3.56L117.23 3.56Q116.58 3.56 116.04 3.80Q115.51 4.04 115.12 4.47Q114.73 4.90 114.51 5.46Q114.30 6.02 114.30 6.65L114.30 6.65Q114.30 7.29 114.51 7.85Q114.73 8.41 115.12 8.84Q115.51 9.27 116.05 9.51Q116.59 9.75 117.23 9.75ZM127.75 10.38L125.30 10.38L125.30 2.93L127.75 2.93Q128.86 2.93 129.68 3.39Q130.50 3.84 130.95 4.68Q131.40 5.51 131.40 6.65L131.40 6.65Q131.40 7.78 130.95 8.62Q130.50 9.46 129.68 9.92Q128.86 10.38 127.75 10.38L127.75 10.38ZM126.10 3.68L126.10 9.63L127.75 9.63Q128.61 9.63 129.24 9.27Q129.87 8.90 130.21 8.23Q130.56 7.56 130.56 6.65L130.56 6.65Q130.56 5.74 130.21 5.08Q129.86 4.41 129.23 4.05Q128.60 3.68 127.75 3.68L127.75 3.68L126.10 3.68ZM138.14 10.50L138.14 10.50Q137.35 10.50 136.75 10.17Q136.15 9.84 135.82 9.27Q135.49 8.69 135.49 7.95L135.49 7.95L135.49 2.93L136.29 2.93L136.29 7.95Q136.29 8.49 136.52 8.90Q136.76 9.30 137.17 9.53Q137.59 9.75 138.14 9.75L138.14 9.75Q138.69 9.75 139.10 9.53Q139.52 9.30 139.75 8.90Q139.99 8.49 139.99 7.95L139.99 7.95L139.99 2.93L140.79 2.93L140.79 7.95Q140.79 8.69 140.46 9.27Q140.13 9.84 139.53 10.17Q138.94 10.50 138.14 10.50ZM148.72 10.50L148.72 10.50Q147.93 10.50 147.27 10.22Q146.61 9.93 146.13 9.42Q145.64 8.90 145.37 8.20Q145.10 7.50 145.10 6.66L145.10 6.66Q145.10 5.82 145.37 5.12Q145.64 4.42 146.13 3.90Q146.61 3.38 147.27 3.10Q147.93 2.81 148.72 2.81L148.72 2.81Q149.48 2.81 150.09 3.08Q150.69 3.35 151.10 3.78Q151.52 4.20 151.70 4.67L151.70 4.67L150.95 5.00Q150.67 4.35 150.09 3.96Q149.52 3.56 148.72 3.56L148.72 3.56Q147.90 3.56 147.26 3.95Q146.62 4.34 146.26 5.04Q145.90 5.73 145.90 6.66L145.90 6.66Q145.90 7.58 146.26 8.28Q146.62 8.98 147.26 9.37Q147.90 9.75 148.72 9.75L148.72 9.75Q149.52 9.75 150.09 9.36Q150.67 8.97 150.95 8.32L150.95 8.32L151.70 8.65Q151.52 9.11 151.10 9.54Q150.69 9.96 150.09 10.23Q149.48 10.50 148.72 10.50ZM158.02 10.38L157.22 10.38L157.22 3.68L155.16 3.68L155.16 2.93L160.06 2.93L160.06 3.68L158.02 3.68L158.02 10.38ZM171.75 10.50L171.75 10.50Q170.96 10.50 170.30 10.22Q169.64 9.93 169.16 9.42Q168.67 8.90 168.40 8.20Q168.13 7.50 168.13 6.66L168.13 6.66Q168.13 5.82 168.40 5.12Q168.67 4.42 169.16 3.90Q169.64 3.38 170.30 3.10Q170.96 2.81 171.75 2.81L171.75 2.81Q172.51 2.81 173.12 3.08Q173.72 3.35 174.14 3.78Q174.55 4.20 174.73 4.67L174.73 4.67L174.01 5.02Q173.73 4.34 173.15 3.95Q172.57 3.56 171.75 3.56L171.75 3.56Q170.93 3.56 170.29 3.95Q169.65 4.34 169.29 5.04Q168.93 5.73 168.93 6.66L168.93 6.66Q168.93 7.58 169.29 8.28Q169.65 8.98 170.29 9.37Q170.93 9.75 171.75 9.75L171.75 9.75Q172.48 9.75 173.07 9.43Q173.65 9.11 173.99 8.56Q174.33 8 174.33 7.28L174.33 7.28L174.33 6.87L174.69 7.23L171.75 7.23L171.75 6.53L175.13 6.53L175.13 7.15Q175.13 7.88 174.87 8.50Q174.61 9.11 174.15 9.56Q173.69 10.01 173.08 10.26Q172.46 10.50 171.75 10.50ZM184.16 10.38L179.36 10.38L179.36 2.93L184.16 2.93L184.16 3.68L180.16 3.68L180.16 6.27L183.96 6.27L183.96 7.02L180.16 7.02L180.16 9.63L184.16 9.63L184.16 10.38ZM189.08 10.38L188.28 10.38L188.28 2.93L188.98 2.93L193.35 9.20L193.08 9.20L193.08 2.93L193.88 2.93L193.88 10.38L193.18 10.38L188.81 4.07L189.08 4.07L189.08 10.38ZM203.24 10.38L198.44 10.38L198.44 2.93L203.24 2.93L203.24 3.68L199.24 3.68L199.24 6.27L203.04 6.27L203.04 7.02L199.24 7.02L199.24 9.63L203.24 9.63L203.24 10.38ZM208.16 10.38L207.36 10.38L207.36 2.93L209.92 2.93Q210.65 2.93 211.20 3.22Q211.75 3.50 212.06 4.02Q212.36 4.53 212.36 5.21L212.36 5.21Q212.36 6.00 211.95 6.56Q211.53 7.12 210.82 7.35L210.82 7.35L212.56 10.38L211.62 10.38L209.80 7.17L210.34 7.48L208.16 7.48L208.16 10.38ZM208.16 3.68L208.16 6.73L209.96 6.73Q210.44 6.73 210.80 6.55Q211.16 6.36 211.36 6.02Q211.56 5.67 211.56 5.20L211.56 5.20Q211.56 4.73 211.36 4.39Q211.16 4.05 210.80 3.87Q210.44 3.68 209.96 3.68L209.96 3.68L208.16 3.68ZM216.64 10.38L215.80 10.38L218.52 2.93L219.38 2.93L222.10 10.38L221.26 10.38L220.62 8.56L217.29 8.56L216.64 10.38ZM219.07 3.53L217.55 7.81L220.34 7.81L218.83 3.53L219.07 3.53ZM229.99 10.38L225.89 10.38L225.89 2.93L226.69 2.93L226.69 9.63L229.99 9.63L229.99 10.38ZM234.80 10.38L234.00 10.38L234.00 2.93L234.80 2.93L234.80 10.38ZM241.87 10.50L241.87 10.50Q241.16 10.50 240.58 10.23Q240.00 9.96 239.60 9.51Q239.20 9.05 239.03 8.50L239.03 8.50L239.75 8.23Q240.01 8.99 240.56 9.39Q241.11 9.78 241.87 9.78L241.87 9.78Q242.35 9.78 242.72 9.63Q243.08 9.47 243.28 9.19Q243.48 8.91 243.48 8.54L243.48 8.54Q243.48 7.99 243.18 7.69Q242.88 7.39 242.32 7.23L242.32 7.23L240.98 6.83Q240.19 6.60 239.77 6.06Q239.34 5.52 239.34 4.83L239.34 4.83Q239.34 4.24 239.63 3.79Q239.92 3.33 240.43 3.07Q240.93 2.81 241.57 2.81L241.57 2.81Q242.24 2.81 242.78 3.06Q243.31 3.30 243.68 3.70Q244.05 4.10 244.21 4.59L244.21 4.59L243.51 4.87Q243.27 4.21 242.77 3.87Q242.26 3.53 241.58 3.53L241.58 3.53Q241.15 3.53 240.83 3.68Q240.50 3.83 240.32 4.11Q240.14 4.39 240.14 4.77L240.14 4.77Q240.14 5.23 240.43 5.60Q240.72 5.96 241.32 6.14L241.32 6.14L242.50 6.49Q243.38 6.75 243.83 7.24Q244.28 7.73 244.28 8.47L244.28 8.47Q244.28 9.07 243.98 9.53Q243.67 9.98 243.13 10.24Q242.58 10.50 241.87 10.50ZM250.71 10.38L249.91 10.38L249.91 3.68L247.85 3.68L247.85 2.93L252.75 2.93L252.75 3.68L250.71 3.68L250.71 10.38ZM261.84 10.38L261.04 10.38L261.04 2.93L265.64 2.93L265.64 3.68L261.84 3.68L261.84 6.27L265.34 6.27L265.34 7.02L261.84 7.02L261.84 10.38ZM273.06 10.50L273.06 10.50Q272.28 10.50 271.61 10.22Q270.93 9.93 270.42 9.42Q269.91 8.90 269.62 8.20Q269.33 7.49 269.33 6.65L269.33 6.65Q269.33 5.81 269.62 5.11Q269.91 4.40 270.42 3.89Q270.93 3.37 271.61 3.09Q272.28 2.81 273.06 2.81L273.06 2.81Q273.84 2.81 274.52 3.10Q275.19 3.38 275.70 3.90Q276.21 4.41 276.50 5.11Q276.79 5.81 276.79 6.65L276.79 6.65Q276.79 7.49 276.50 8.20Q276.21 8.90 275.70 9.42Q275.19 9.93 274.52 10.22Q273.84 10.50 273.06 10.50ZM273.06 9.75L273.06 9.75Q273.71 9.75 274.25 9.51Q274.78 9.27 275.17 8.84Q275.56 8.41 275.78 7.85Q275.99 7.29 275.99 6.65L275.99 6.65Q275.99 6.02 275.78 5.46Q275.56 4.90 275.17 4.47Q274.78 4.04 274.25 3.80Q273.71 3.56 273.06 3.56L273.06 3.56Q272.41 3.56 271.88 3.80Q271.34 4.04 270.95 4.47Q270.56 4.90 270.35 5.46Q270.13 6.02 270.13 6.65L270.13 6.65Q270.13 7.29 270.35 7.85Q270.56 8.41 270.95 8.84Q271.34 9.27 271.88 9.51Q272.42 9.75 273.06 9.75ZM281.93 10.38L281.13 10.38L281.13 2.93L283.69 2.93Q284.42 2.93 284.97 3.22Q285.52 3.50 285.83 4.02Q286.13 4.53 286.13 5.21L286.13 5.21Q286.13 6.00 285.72 6.56Q285.30 7.12 284.59 7.35L284.59 7.35L286.33 10.38L285.39 10.38L283.57 7.17L284.11 7.48L281.93 7.48L281.93 10.38ZM281.93 3.68L281.93 6.73L283.73 6.73Q284.21 6.73 284.57 6.55Q284.93 6.36 285.13 6.02Q285.33 5.67 285.33 5.20L285.33 5.20Q285.33 4.73 285.13 4.39Q284.93 4.05 284.57 3.87Q284.21 3.68 283.73 3.68L283.73 3.68L281.93 3.68ZM297.48 10.38L296.68 10.38L296.68 6.92L294.07 2.93L294.96 2.93L297.24 6.40L296.92 6.40L299.19 2.93L300.08 2.93L297.48 6.92L297.48 10.38ZM307.08 10.50L307.08 10.50Q306.30 10.50 305.63 10.22Q304.95 9.93 304.44 9.42Q303.93 8.90 303.64 8.20Q303.35 7.49 303.35 6.65L303.35 6.65Q303.35 5.81 303.64 5.11Q303.93 4.40 304.44 3.89Q304.95 3.37 305.63 3.09Q306.30 2.81 307.08 2.81L307.08 2.81Q307.86 2.81 308.54 3.10Q309.21 3.38 309.72 3.90Q310.23 4.41 310.52 5.11Q310.81 5.81 310.81 6.65L310.81 6.65Q310.81 7.49 310.52 8.20Q310.23 8.90 309.72 9.42Q309.21 9.93 308.54 10.22Q307.86 10.50 307.08 10.50ZM307.08 9.75L307.08 9.75Q307.73 9.75 308.27 9.51Q308.80 9.27 309.19 8.84Q309.58 8.41 309.80 7.85Q310.01 7.29 310.01 6.65L310.01 6.65Q310.01 6.02 309.80 5.46Q309.58 4.90 309.19 4.47Q308.80 4.04 308.27 3.80Q307.73 3.56 307.08 3.56L307.08 3.56Q306.43 3.56 305.90 3.80Q305.36 4.04 304.97 4.47Q304.58 4.90 304.37 5.46Q304.15 6.02 304.15 6.65L304.15 6.65Q304.15 7.29 304.37 7.85Q304.58 8.41 304.97 8.84Q305.36 9.27 305.90 9.51Q306.44 9.75 307.08 9.75ZM317.77 10.50L317.77 10.50Q316.98 10.50 316.38 10.17Q315.78 9.84 315.45 9.27Q315.12 8.69 315.12 7.95L315.12 7.95L315.12 2.93L315.92 2.93L315.92 7.95Q315.92 8.49 316.16 8.90Q316.39 9.30 316.81 9.53Q317.22 9.75 317.77 9.75L317.77 9.75Q318.32 9.75 318.74 9.53Q319.15 9.30 319.39 8.90Q319.62 8.49 319.62 7.95L319.62 7.95L319.62 2.93L320.42 2.93L320.42 7.95Q320.42 8.69 320.09 9.27Q319.76 9.84 319.17 10.17Q318.57 10.50 317.77 10.50ZM325.75 10.38L324.95 10.38L324.95 2.93L327.51 2.93Q328.24 2.93 328.79 3.22Q329.34 3.50 329.65 4.02Q329.95 4.53 329.95 5.21L329.95 5.21Q329.95 6.00 329.54 6.56Q329.12 7.12 328.41 7.35L328.41 7.35L330.15 10.38L329.21 10.38L327.39 7.17L327.93 7.48L325.75 7.48L325.75 10.38ZM325.75 3.68L325.75 6.73L327.55 6.73Q328.03 6.73 328.39 6.55Q328.75 6.36 328.95 6.02Q329.15 5.67 329.15 5.20L329.15 5.20Q329.15 4.73 328.95 4.39Q328.75 4.05 328.39 3.87Q328.03 3.68 327.55 3.68L327.55 3.68L325.75 3.68ZM341.80 10.38L338.66 10.38L338.66 2.93L341.79 2.93Q342.42 2.93 342.89 3.17Q343.35 3.40 343.61 3.82Q343.86 4.24 343.86 4.80L343.86 4.80Q343.86 5.38 343.58 5.83Q343.29 6.27 342.76 6.50L342.76 6.50L342.75 6.26Q343.19 6.42 343.51 6.71Q343.82 7.00 343.99 7.39Q344.16 7.77 344.16 8.21L344.16 8.21Q344.16 9.21 343.53 9.80Q342.89 10.38 341.80 10.38L341.80 10.38ZM339.46 6.80L339.46 9.63L341.80 9.63Q342.51 9.63 342.94 9.26Q343.36 8.88 343.36 8.22L343.36 8.22Q343.36 7.57 342.94 7.19Q342.51 6.80 341.80 6.80L341.80 6.80L339.46 6.80ZM339.46 3.68L339.46 6.08L341.73 6.08Q342.33 6.08 342.70 5.73Q343.06 5.38 343.06 4.83L343.06 4.83Q343.06 4.27 342.70 3.98Q342.33 3.68 341.73 3.68L341.73 3.68L339.46 3.68ZM351.01 10.50L351.01 10.50Q350.22 10.50 349.62 10.17Q349.02 9.84 348.69 9.27Q348.36 8.69 348.36 7.95L348.36 7.95L348.36 2.93L349.16 2.93L349.16 7.95Q349.16 8.49 349.40 8.90Q349.63 9.30 350.05 9.53Q350.46 9.75 351.01 9.75L351.01 9.75Q351.56 9.75 351.98 9.53Q352.39 9.30 352.63 8.90Q352.86 8.49 352.86 7.95L352.86 7.95L352.86 2.93L353.66 2.93L353.66 7.95Q353.66 8.69 353.33 9.27Q353.00 9.84 352.41 10.17Q351.81 10.50 351.01 10.50ZM360.70 10.50L360.70 10.50Q359.99 10.50 359.41 10.23Q358.83 9.96 358.43 9.51Q358.03 9.05 357.86 8.50L357.86 8.50L358.58 8.23Q358.84 8.99 359.39 9.39Q359.94 9.78 360.70 9.78L360.70 9.78Q361.18 9.78 361.55 9.63Q361.91 9.47 362.11 9.19Q362.31 8.91 362.31 8.54L362.31 8.54Q362.31 7.99 362.01 7.69Q361.71 7.39 361.15 7.23L361.15 7.23L359.81 6.83Q359.02 6.60 358.60 6.06Q358.17 5.52 358.17 4.83L358.17 4.83Q358.17 4.24 358.46 3.79Q358.75 3.33 359.26 3.07Q359.76 2.81 360.40 2.81L360.40 2.81Q361.07 2.81 361.61 3.06Q362.14 3.30 362.51 3.70Q362.88 4.10 363.04 4.59L363.04 4.59L362.34 4.87Q362.10 4.21 361.60 3.87Q361.09 3.53 360.41 3.53L360.41 3.53Q359.98 3.53 359.66 3.68Q359.33 3.83 359.15 4.11Q358.97 4.39 358.97 4.77L358.97 4.77Q358.97 5.23 359.26 5.60Q359.55 5.96 360.15 6.14L360.15 6.14L361.33 6.49Q362.21 6.75 362.66 7.24Q363.11 7.73 363.11 8.47L363.11 8.47Q363.11 9.07 362.81 9.53Q362.50 9.98 361.96 10.24Q361.41 10.50 360.70 10.50ZM368.25 10.38L367.45 10.38L367.45 2.93L368.25 2.93L368.25 10.38ZM373.61 10.38L372.81 10.38L372.81 2.93L373.51 2.93L377.88 9.20L377.61 9.20L377.61 2.93L378.41 2.93L378.41 10.38L377.71 10.38L373.34 4.07L373.61 4.07L373.61 10.38ZM387.77 10.38L382.97 10.38L382.97 2.93L387.77 2.93L387.77 3.68L383.77 3.68L383.77 6.27L387.57 6.27L387.57 7.02L383.77 7.02L383.77 9.63L387.77 9.63L387.77 10.38ZM394.40 10.50L394.40 10.50Q393.69 10.50 393.11 10.23Q392.53 9.96 392.13 9.51Q391.73 9.05 391.56 8.50L391.56 8.50L392.28 8.23Q392.54 8.99 393.09 9.39Q393.64 9.78 394.40 9.78L394.40 9.78Q394.88 9.78 395.25 9.63Q395.61 9.47 395.81 9.19Q396.01 8.91 396.01 8.54L396.01 8.54Q396.01 7.99 395.71 7.69Q395.41 7.39 394.85 7.23L394.85 7.23L393.51 6.83Q392.72 6.60 392.30 6.06Q391.87 5.52 391.87 4.83L391.87 4.83Q391.87 4.24 392.16 3.79Q392.45 3.33 392.96 3.07Q393.46 2.81 394.10 2.81L394.10 2.81Q394.77 2.81 395.31 3.06Q395.84 3.30 396.21 3.70Q396.58 4.10 396.74 4.59L396.74 4.59L396.04 4.87Q395.80 4.21 395.30 3.87Q394.79 3.53 394.11 3.53L394.11 3.53Q393.68 3.53 393.36 3.68Q393.03 3.83 392.85 4.11Q392.67 4.39 392.67 4.77L392.67 4.77Q392.67 5.23 392.96 5.60Q393.25 5.96 393.85 6.14L393.85 6.14L395.03 6.49Q395.91 6.75 396.36 7.24Q396.81 7.73 396.81 8.47L396.81 8.47Q396.81 9.07 396.51 9.53Q396.20 9.98 395.66 10.24Q395.11 10.50 394.40 10.50ZM403.66 10.50L403.66 10.50Q402.95 10.50 402.37 10.23Q401.79 9.96 401.39 9.51Q400.99 9.05 400.82 8.50L400.82 8.50L401.54 8.23Q401.80 8.99 402.35 9.39Q402.90 9.78 403.66 9.78L403.66 9.78Q404.14 9.78 404.51 9.63Q404.87 9.47 405.07 9.19Q405.27 8.91 405.27 8.54L405.27 8.54Q405.27 7.99 404.97 7.69Q404.67 7.39 404.11 7.23L404.11 7.23L402.77 6.83Q401.98 6.60 401.56 6.06Q401.13 5.52 401.13 4.83L401.13 4.83Q401.13 4.24 401.42 3.79Q401.71 3.33 402.22 3.07Q402.72 2.81 403.36 2.81L403.36 2.81Q404.03 2.81 404.57 3.06Q405.10 3.30 405.47 3.70Q405.84 4.10 406.00 4.59L406.00 4.59L405.30 4.87Q405.06 4.21 404.56 3.87Q404.05 3.53 403.37 3.53L403.37 3.53Q402.94 3.53 402.62 3.68Q402.29 3.83 402.11 4.11Q401.93 4.39 401.93 4.77L401.93 4.77Q401.93 5.23 402.22 5.60Q402.51 5.96 403.11 6.14L403.11 6.14L404.29 6.49Q405.17 6.75 405.62 7.24Q406.07 7.73 406.07 8.47L406.07 8.47Q406.07 9.07 405.77 9.53Q405.46 9.98 404.92 10.24Q404.37 10.50 403.66 10.50ZM418.42 10.50L418.42 10.50Q417.64 10.50 416.97 10.22Q416.29 9.93 415.78 9.42Q415.27 8.90 414.98 8.20Q414.69 7.49 414.69 6.65L414.69 6.65Q414.69 5.81 414.98 5.11Q415.27 4.40 415.78 3.89Q416.29 3.37 416.97 3.09Q417.64 2.81 418.42 2.81L418.42 2.81Q419.20 2.81 419.88 3.10Q420.55 3.38 421.06 3.90Q421.57 4.41 421.86 5.11Q422.15 5.81 422.15 6.65L422.15 6.65Q422.15 7.49 421.86 8.20Q421.57 8.90 421.06 9.42Q420.55 9.93 419.88 10.22Q419.20 10.50 418.42 10.50ZM418.42 9.75L418.42 9.75Q419.07 9.75 419.61 9.51Q420.14 9.27 420.53 8.84Q420.92 8.41 421.14 7.85Q421.35 7.29 421.35 6.65L421.35 6.65Q421.35 6.02 421.14 5.46Q420.92 4.90 420.53 4.47Q420.14 4.04 419.61 3.80Q419.07 3.56 418.42 3.56L418.42 3.56Q417.77 3.56 417.24 3.80Q416.70 4.04 416.31 4.47Q415.92 4.90 415.71 5.46Q415.49 6.02 415.49 6.65L415.49 6.65Q415.49 7.29 415.71 7.85Q415.92 8.41 416.31 8.84Q416.70 9.27 417.24 9.51Q417.78 9.75 418.42 9.75ZM427.29 10.38L426.49 10.38L426.49 2.93L429.05 2.93Q429.78 2.93 430.33 3.22Q430.88 3.50 431.19 4.02Q431.49 4.53 431.49 5.21L431.49 5.21Q431.49 6.00 431.08 6.56Q430.66 7.12 429.95 7.35L429.95 7.35L431.69 10.38L430.75 10.38L428.93 7.17L429.47 7.48L427.29 7.48L427.29 10.38ZM427.29 3.68L427.29 6.73L429.09 6.73Q429.57 6.73 429.93 6.55Q430.29 6.36 430.49 6.02Q430.69 5.67 430.69 5.20L430.69 5.20Q430.69 4.73 430.49 4.39Q430.29 4.05 429.93 3.87Q429.57 3.68 429.09 3.68L429.09 3.68L427.29 3.68ZM440.27 10.38L439.43 10.38L442.15 2.93L443.01 2.93L445.73 10.38L444.89 10.38L444.25 8.56L440.92 8.56L440.27 10.38ZM442.70 3.53L441.18 7.81L443.97 7.81L442.46 3.53L442.70 3.53ZM452.62 10.50L452.62 10.50Q451.83 10.50 451.17 10.22Q450.51 9.93 450.03 9.42Q449.54 8.90 449.27 8.20Q449.00 7.50 449.00 6.66L449.00 6.66Q449.00 5.82 449.27 5.12Q449.54 4.42 450.03 3.90Q450.51 3.38 451.17 3.10Q451.83 2.81 452.62 2.81L452.62 2.81Q453.38 2.81 453.99 3.08Q454.59 3.35 455.01 3.78Q455.42 4.20 455.60 4.67L455.60 4.67L454.88 5.02Q454.60 4.34 454.02 3.95Q453.44 3.56 452.62 3.56L452.62 3.56Q451.80 3.56 451.16 3.95Q450.52 4.34 450.16 5.04Q449.80 5.73 449.80 6.66L449.80 6.66Q449.80 7.58 450.16 8.28Q450.52 8.98 451.16 9.37Q451.80 9.75 452.62 9.75L452.62 9.75Q453.35 9.75 453.94 9.43Q454.52 9.11 454.86 8.56Q455.20 8 455.20 7.28L455.20 7.28L455.20 6.87L455.56 7.23L452.62 7.23L452.62 6.53L456.00 6.53L456.00 7.15Q456.00 7.88 455.74 8.50Q455.48 9.11 455.02 9.56Q454.56 10.01 453.95 10.26Q453.33 10.50 452.62 10.50ZM465.03 10.38L460.23 10.38L460.23 2.93L465.03 2.93L465.03 3.68L461.03 3.68L461.03 6.27L464.83 6.27L464.83 7.02L461.03 7.02L461.03 9.63L465.03 9.63L465.03 10.38ZM469.95 10.38L469.15 10.38L469.15 2.93L469.85 2.93L474.22 9.20L473.95 9.20L473.95 2.93L474.75 2.93L474.75 10.38L474.05 10.38L469.68 4.07L469.95 4.07L469.95 10.38ZM482.71 10.50L482.71 10.50Q481.92 10.50 481.26 10.22Q480.60 9.93 480.12 9.42Q479.63 8.90 479.36 8.20Q479.09 7.50 479.09 6.66L479.09 6.66Q479.09 5.82 479.36 5.12Q479.63 4.42 480.12 3.90Q480.60 3.38 481.26 3.10Q481.92 2.81 482.71 2.81L482.71 2.81Q483.47 2.81 484.08 3.08Q484.68 3.35 485.10 3.78Q485.51 4.20 485.69 4.67L485.69 4.67L484.94 5.00Q484.66 4.35 484.09 3.96Q483.51 3.56 482.71 3.56L482.71 3.56Q481.89 3.56 481.25 3.95Q480.61 4.34 480.25 5.04Q479.89 5.73 479.89 6.66L479.89 6.66Q479.89 7.58 480.25 8.28Q480.61 8.98 481.25 9.37Q481.89 9.75 482.71 9.75L482.71 9.75Q483.51 9.75 484.09 9.36Q484.66 8.97 484.94 8.32L484.94 8.32L485.69 8.65Q485.51 9.11 485.10 9.54Q484.68 9.96 484.08 10.23Q483.47 10.50 482.71 10.50ZM492.46 10.38L491.66 10.38L491.66 6.92L489.05 2.93L489.94 2.93L492.22 6.40L491.90 6.40L494.17 2.93L495.06 2.93L492.46 6.92L492.46 10.38Z" transform="translate(0, 0)"></path></g></svg></g> <g transform="rotate(0 287.5 434.4613209776245)"><svg xmlns="http://www.w3.org/2000/svg" y="423.5313206724487" viewBox="1.25 7.989999771118164 164.89999389648438 21.860000610351562" x="205.0500030517578" height="21.860000610351562" width="164.89999389648438" style="overflow: visible;"><g fill="#FFFFFF" fill-opacity="1" style=""><path d="M9.61 29.85L9.61 29.85Q7.62 29.85 5.91 29.09Q4.21 28.34 3.01 27.03Q1.82 25.73 1.25 24.02L1.25 24.02L4.09 22.83Q4.86 24.79 6.34 25.84Q7.82 26.89 9.75 26.89L9.75 26.89Q10.89 26.89 11.74 26.54Q12.59 26.18 13.06 25.53Q13.53 24.87 13.53 24.02L13.53 24.02Q13.53 22.85 12.88 22.17Q12.22 21.49 10.94 21.09L10.94 21.09L6.96 19.84Q4.58 19.10 3.33 17.58Q2.08 16.06 2.08 14.01L2.08 14.01Q2.08 12.22 2.96 10.87Q3.84 9.52 5.39 8.76Q6.94 7.99 8.93 7.99L8.93 7.99Q10.83 7.99 12.39 8.66Q13.96 9.32 15.08 10.49Q16.20 11.65 16.71 13.19L16.71 13.19L13.93 14.41Q13.30 12.73 11.98 11.82Q10.66 10.92 8.93 10.92L8.93 10.92Q7.87 10.92 7.08 11.27Q6.28 11.63 5.84 12.29Q5.40 12.96 5.40 13.84L5.40 13.84Q5.40 14.87 6.05 15.66Q6.71 16.46 8.04 16.86L8.04 16.86L11.74 18.02Q14.27 18.79 15.55 20.22Q16.83 21.66 16.83 23.79L16.83 23.79Q16.83 25.55 15.90 26.92Q14.98 28.28 13.36 29.07Q11.74 29.85 9.61 29.85ZM26.92 29.68L26.92 29.68Q24.50 29.68 23.17 28.31Q21.83 26.95 21.83 24.47L21.83 24.47L21.83 17.03L19.13 17.03L19.13 14.13L19.56 14.13Q20.64 14.13 21.23 13.50Q21.83 12.88 21.83 11.80L21.83 11.80L21.83 10.60L25.04 10.60L25.04 14.13L28.54 14.13L28.54 17.03L25.04 17.03L25.04 24.33Q25.04 25.13 25.30 25.68Q25.55 26.24 26.12 26.54Q26.69 26.83 27.60 26.83L27.60 26.83Q27.83 26.83 28.11 26.81Q28.40 26.78 28.65 26.75L28.65 26.75L28.65 29.51Q28.25 29.56 27.77 29.62Q27.29 29.68 26.92 29.68ZM38.91 29.85L38.91 29.85Q36.70 29.85 34.86 28.79Q33.03 27.74 31.95 25.92Q30.87 24.10 30.87 21.80L30.87 21.80Q30.87 19.47 31.95 17.67Q33.03 15.86 34.85 14.82Q36.67 13.79 38.91 13.79L38.91 13.79Q41.19 13.79 42.99 14.82Q44.80 15.86 45.86 17.67Q46.93 19.47 46.93 21.80L46.93 21.80Q46.93 24.13 45.85 25.95Q44.77 27.77 42.95 28.81Q41.13 29.85 38.91 29.85ZM38.91 26.86L38.91 26.86Q40.28 26.86 41.33 26.21Q42.38 25.55 42.99 24.40Q43.60 23.25 43.60 21.80L43.60 21.80Q43.60 20.35 42.99 19.22Q42.38 18.08 41.33 17.42Q40.28 16.77 38.91 16.77L38.91 16.77Q37.58 16.77 36.51 17.42Q35.45 18.08 34.84 19.22Q34.22 20.35 34.22 21.80L34.22 21.80Q34.22 23.25 34.84 24.40Q35.45 25.55 36.51 26.21Q37.58 26.86 38.91 26.86ZM53.27 29.51L50.06 29.51L50.06 14.13L53.13 14.13L53.13 17.23L52.84 16.77Q53.35 15.26 54.49 14.60Q55.63 13.93 57.22 13.93L57.22 13.93L58.16 13.93L58.16 16.86L56.82 16.86Q55.23 16.86 54.25 17.84Q53.27 18.82 53.27 20.64L53.27 20.64L53.27 29.51ZM63.56 29.51L60.35 29.51L60.35 14.13L63.42 14.13L63.42 17.45L63.02 16.94Q63.50 15.38 64.78 14.58Q66.06 13.79 67.71 13.79L67.71 13.79Q69.56 13.79 70.99 14.77Q72.43 15.75 72.91 17.37L72.91 17.37L72.00 17.45Q72.68 15.61 74.09 14.70Q75.50 13.79 77.32 13.79L77.32 13.79Q78.91 13.79 80.20 14.53Q81.50 15.26 82.26 16.57Q83.03 17.88 83.03 19.56L83.03 19.56L83.03 29.51L79.82 29.51L79.82 20.44Q79.82 19.27 79.41 18.46Q78.99 17.65 78.27 17.21Q77.54 16.77 76.58 16.77L76.58 16.77Q75.61 16.77 74.87 17.21Q74.13 17.65 73.71 18.48Q73.28 19.30 73.28 20.44L73.28 20.44L73.28 29.51L70.10 29.51L70.10 20.44Q70.10 19.27 69.68 18.46Q69.27 17.65 68.55 17.21Q67.82 16.77 66.83 16.77L66.83 16.77Q65.86 16.77 65.12 17.21Q64.38 17.65 63.97 18.48Q63.56 19.30 63.56 20.44L63.56 20.44L63.56 29.51ZM92.04 29.51L90.82 29.51L90.82 26.38L92.04 26.38Q93.46 26.38 94.32 25.54Q95.17 24.70 95.17 23.28L95.17 23.28L95.17 8.33L98.49 8.33L98.49 23.17Q98.49 25.10 97.71 26.52Q96.93 27.94 95.47 28.72Q94.00 29.51 92.04 29.51L92.04 29.51ZM107.14 29.85L107.14 29.85Q105.57 29.85 104.39 29.29Q103.21 28.74 102.56 27.76Q101.91 26.78 101.91 25.44L101.91 25.44Q101.91 24.19 102.46 23.20Q103.01 22.20 104.18 21.52Q105.34 20.84 107.11 20.55L107.11 20.55L112.45 19.67L112.45 22.20L107.73 23.02Q106.45 23.25 105.86 23.83Q105.26 24.42 105.26 25.33L105.26 25.33Q105.26 26.21 105.93 26.76Q106.60 27.32 107.65 27.32L107.65 27.32Q108.95 27.32 109.94 26.75Q110.92 26.18 111.46 25.23Q112.00 24.28 112.00 23.11L112.00 23.11L112.00 19.16Q112.00 18.02 111.16 17.30Q110.32 16.57 108.93 16.57L108.93 16.57Q107.65 16.57 106.69 17.24Q105.74 17.91 105.29 18.96L105.29 18.96L102.62 17.62Q103.04 16.49 104.01 15.62Q104.98 14.75 106.27 14.27Q107.56 13.79 109.01 13.79L109.01 13.79Q110.83 13.79 112.24 14.47Q113.64 15.15 114.43 16.36Q115.21 17.57 115.21 19.16L115.21 19.16L115.21 29.51L112.14 29.51L112.14 26.72L112.79 26.81Q112.25 27.74 111.41 28.43Q110.57 29.11 109.51 29.48Q108.44 29.85 107.14 29.85ZM122.17 29.51L118.96 29.51L118.96 14.13L122.03 14.13L122.03 17.23L121.75 16.77Q122.26 15.26 123.39 14.60Q124.53 13.93 126.12 13.93L126.12 13.93L127.06 13.93L127.06 16.86L125.73 16.86Q124.13 16.86 123.15 17.84Q122.17 18.82 122.17 20.64L122.17 20.64L122.17 29.51ZM136.64 29.51L133.71 29.51L127.69 14.13L131.18 14.13L135.82 26.66L134.54 26.66L139.17 14.13L142.70 14.13L136.64 29.51ZM148.10 29.51L144.88 29.51L144.88 14.13L148.10 14.13L148.10 29.51ZM148.10 12.02L144.88 12.02L144.88 8.33L148.10 8.33L148.10 12.02ZM159.07 29.85L159.07 29.85Q156.77 29.85 154.99 28.78Q153.21 27.71 152.22 25.88Q151.22 24.05 151.22 21.77L151.22 21.77Q151.22 19.44 152.23 17.65Q153.24 15.86 154.95 14.82Q156.65 13.79 158.81 13.79L158.81 13.79Q160.55 13.79 161.91 14.38Q163.28 14.98 164.21 16.02Q165.15 17.06 165.65 18.39Q166.15 19.73 166.15 21.23L166.15 21.23Q166.15 21.60 166.12 22.00Q166.09 22.40 166.00 22.74L166.00 22.74L153.75 22.74L153.75 20.18L164.19 20.18L162.65 21.35Q162.93 19.95 162.47 18.86Q162.00 17.77 161.04 17.13Q160.09 16.49 158.81 16.49L158.81 16.49Q157.53 16.49 156.54 17.13Q155.54 17.77 155.00 18.95Q154.46 20.13 154.58 21.80L154.58 21.80Q154.44 23.37 155.02 24.53Q155.60 25.70 156.67 26.35Q157.73 27.00 159.10 27.00L159.10 27.00Q160.49 27.00 161.47 26.38Q162.45 25.75 163.02 24.76L163.02 24.76L165.64 26.04Q165.18 27.12 164.23 27.98Q163.28 28.85 161.95 29.35Q160.63 29.85 159.07 29.85Z" transform="translate(0, 0)"></path></g></svg></g></svg>