<svg xmlns="http://www.w3.org/2000/svg" viewBox="81 -34 438.6571044921875 636.1750618791683"><rect height="100%" width="100%" x="81" y="-34" fill="rgba(255, 255, 255, 0)"/> <svg xmlns="http://www.w3.org/2000/svg" xmlns:xlink="http://www.w3.org/1999/xlink" version="1.1" id="Layer_1" x="151" y="36" viewBox="80.60000610351562 64.10004425048828 432.8999938964844 719.199951171875" xml:space="preserve" height="496.1750618791683" width="298.6571044921875" preserveAspectRatio="xMinYMin" enable-background="new 0 0 588.2 846.3" style="overflow: visible;"><polygon class="st0" points="99.1,480.1 392.1,84.1 309.8,359.5 492.1,365.4 203.9,742.7 277.5,478.1 " style="fill: #FFEBA6; fill-opacity: 0;"></polygon><polygon class="st1" points="169.1,441.3 342.1,204.1 258.7,400.8 427.1,400.1 272.1,616.1 350.9,440.3 " style="fill: #FFFFFF; fill-opacity: 0;"></polygon><path d="M494.5,353.7c-5.8,0-11,2.6-14.5,6.7h-1.8l-58.3-41.5c0.9-1.8,1.5-3.8,1.5-6c0-6.7-5.2-12.2-11.8-12.8l-12.4-184.4  c12.7-1.7,22.5-12.5,22.5-25.7c0-14.3-11.6-25.9-25.9-25.9S367.9,75.7,367.9,90c0,4.5,1.2,8.8,3.2,12.5L237.9,192  c-2.3-2.4-5.6-3.9-9.2-3.9c-7.1,0-12.8,5.7-12.8,12.8c0,7.1,5.7,12.8,12.8,12.8l-1.7-0.1l-4.4,92.6L103.9,463.9  c-1.4-0.3-2.8-0.5-4.2-0.5c-10.6,0-19.1,8.6-19.1,19.1s8.6,19.1,19.1,19.1c7.5,0,14-4.4,17.1-10.7l95.8,27.2l-9.8,208.8l-1.3,4.6  c-13.7,0.6-24.7,12-24.7,25.9c0,14.3,11.6,25.9,25.9,25.9s25.9-11.6,25.9-25.9c0-6.5-2.4-12.4-6.3-16.9l136.1-180.9l74.6,21.2  c0,0,0,0.1,0,0.1c0,7.1,5.7,12.8,12.8,12.8c7.1,0,12.8-5.7,12.8-12.8c0-7.1-5.7-12.8-12.8-12.8c-1.1,0-2.2,0.2-3.2,0.4l-39.3-68.7  l82.7-109.9c2.5,1.2,5.4,2,8.4,2c10.6,0,19.1-8.6,19.1-19.1S505,353.7,494.5,353.7z M259.9,487c1.2,5,4.4,9.3,8.7,11.8l-7.5,26  l-44.8-12.7l1.2-25.1H259.9z M282.1,501.3c8.8-1.7,15.5-9.4,15.5-18.7c0-10.6-8.6-19.1-19.1-19.1c-7.3,0-13.6,4.1-16.8,10.1h-43.5  l1-21.3l129-35.4l43.5,76.1l-42.8,56.9l-74.6-21.2L282.1,501.3z M214.7,473.5h-73.4l74.4-20.4L214.7,473.5z M219.3,447.4l5.7-121.9  l40.3-53.5l43.8,76.6c-6.7,3-11.4,9.7-11.4,17.5c0,10.6,8.6,19.1,19.1,19.1c4.1,0,8-1.3,11.1-3.6l17.8,31.2L219.3,447.4z M377,123.6  l-63.3,219.3L269.8,266L377,123.6z M332.9,376.4c0.5-0.8,1-1.6,1.4-2.5h141.2c0.1,1.1,0.2,2.1,0.4,3.1l-123.3,33.8L332.9,376.4z   M472.3,360.4H335.1c-0.3-0.8-0.6-1.6-1-2.4l64.2-37.2c2.3,3,6,5,10.1,5c3.7,0,7-1.6,9.4-4.1L472.3,360.4z M406.2,300.2  c-6,1.1-10.5,6.3-10.5,12.6c0,1.7,0.4,3.4,1,4.9L332.5,355c-1.7-2.4-3.9-4.4-6.5-5.8l67.4-233.3c0.1,0,0.3,0,0.4,0c0,0,0,0,0,0  L406.2,300.2z M372.5,107l-110,146.2l-24.7-43.3c2.3-2.3,3.8-5.5,3.8-9.1c0-1.8-0.4-3.6-1.1-5.2L372.5,107z M230.4,213.8l-1.7-0.1  c1.1,0,2.2-0.2,3.2-0.4l26.2,45.8l-31.8,42.3L230.4,213.8z M215.9,448.3l-91.7,25.2h-7.6c-0.4-0.7-0.8-1.4-1.3-2.1l106.2-141.1  L215.9,448.3z M128,487h86l-1.1,24.1L128,487z M216,519.1l43.3,12.3l-52.4,181.4L216,519.1z M217.8,723.8l54.5-188.7l72.1,20.5  L217.8,723.8z M436.7,571.9c-0.7,0.7-1.3,1.5-1.9,2.4l-72.1-20.5l36.2-48.1L436.7,571.9z M354.9,414.9l120.2-33l-79,105L354.9,414.9  z" style="fill: #1A4D2F; fill-opacity: 1;"></path></svg></svg>